# xmcd
#
# Track frame offsets:
#	150
#	18087
#	38850
#	52950
#	71500
#	85150
#	100587
#	112937
#	130575
#	142250
#	159987
#	174112
#	186887
#	201450
#
# Disc length: 2914 seconds
#
# Revision: 0
# Processed by: cddbd v1.5.2PL0 Copyright (c) Steve Scherf et al.
# Submitted via: EasyCDDAExtractor 12.0.4.1
#
DISCID=af0b600e
DTITLE=Various Artist - Another Season - Harvest II
DYEAR=1995
DGENRE=Country
TTITLE0=Lee Kernaghan - Southern Son
TTITLE1=Kev Carmody and Tiddas - On The Wire
TTITLE2=Jane Saunders - Jam Jar
TTITLE3=Troy Cassar-Daley - End Of The Road
TTITLE4=Beccy Cole - Foolin'Around
TTITLE5=Brent Parlane - Am I Ever Gonna See Your Face Again?
TTITLE6=Michael Fix - Country Towns
TTITLE7=Shot to Pieces - God's Country
TTITLE8=Shanly Del - I Know Losin' By Heart
TTITLE9=Shane Hogan - Son Of A Drover
TTITLE10=Pat Drummond - Laughter Like A Shield
TTITLE11=Rod McCormack and Mick Albeck - Foggy Mountain Breakdown
TTITLE12=The Trio - Lonely Blue Heart
TTITLE13=Gina Jeffreys - Standing Too Close To The Flame
EXTD=
EXTT0=
EXTT1=
EXTT2=
EXTT3=
EXTT4=
EXTT5=
EXTT6=
EXTT7=
EXTT8=
EXTT9=
EXTT10=
EXTT11=
EXTT12=
EXTT13=
PLAYORDER=
